/* XPM */
static char *result[] = {
/* columns rows colors chars-per-pixel */
"32 32 12 1 ",
"  c #61557E",
". c #8C76BE",
"X c #8265C4",
"o c #D4939B",
"O c #FB8A98",
"+ c #EB93AD",
"@ c #FB9FAA",
"# c #FFC2AD",
"$ c #9085D0",
"% c #B180C3",
"& c #F4C5D5",
"* c white",
/* pixels */
"$$$$$$$$$$$$$$$$$$$$$$$$$$$$$$$$",
"$$$$$$$$$$$$$$$$$$$$$$$$$$$$$$$$",
"$$..$$$$$$$XX$$$$..$$$$$..$$$$$$",
"$$$..$$$$$$$XX@@@@..$$$$@@@$$$$$",
"$$$$.$$$$$$@@@o###      oO@$$$$$",
"$$$$$$$$$$$@ooOO##      O#@$$$$$",
"$$$$$$$$$$$$@@oo  &&&&&&  $$$$$$",
"$$$$$$$$$..$$$@@  &&&&&&  $@@@$$",
"$$$$$$$$$$..$$  &&  &&&&++  oo@$",
"$$$$$$$$$$$.$$  &&  &&&&++  Oo@$",
"$$$XX$$$$$$$  &&  ++++    O##@$$",
"$$$$XX$$$$$$  &&  ++++    ##@$$$",
"$$$$$X$$$$$$  &&      @oO##@$$$$",
"$$$$$$$$$$$$  &&      @o##@$$$$$",
"$$$$$$$$$$$$  &&  @$$@@@@@$$$$$$",
"$$$$$$$$$..$  &&  $$$$$$$$XX$$$$",
"$$$$$$$$$$  ++&&++  $$$$$$$XX$$$",
"$..$$$$$$$  ++&&++  $$$$$$$$X$$$",
"$$..$$$$  ++**++++++  $$$$$$$$$$",
"$$$.$$$$  ++**++++++  ..$$$$$$$$",
"$$$$$@@@  ++++**++++  $..$$$$$$$",
"$$$@@oo#  ++++**++++  $$.$$$$$$$",
"$$$@ooOO  %%++++++%%  $$$$$$$$$$",
"$$$$@@oo  %%++++++%%  $$$$$$$$$$",
"$$$$$$@@oO  %%%%%%  $$$$$$$$$$$$",
"$$$$$$$$@o  %%%%%%  $$$$$$$$$$$$",
"$..$$@@$@oO@      $$$$$$$$XX$$$$",
"$$..@o#@$@o@      $$$$$$$$$XX$$$",
"$$$.$@o@$@o@@o@$$$$$$$$$$$$$X$$$",
"$$$$$$$$$$$$$$.$$$$$..$$$$$$$$$$",
"$$$$$$$$$$$$$$$$$$$$$..$$$$$$$$$",
"$$$$$$$$$$$$$$$$$$$$$$.$$$$$$$$$"
};
