/* XPM */
static char * Untitled_xpm[] = {
"32 32 166 2",
"  	c #282C38",
". 	c #3E4860",
"+ 	c #262A36",
"@ 	c #3B445B",
"# 	c #31384D",
"$ 	c #333B51",
"% 	c #222735",
"& 	c #262B3B",
"* 	c #31394E",
"= 	c #272B37",
"- 	c #222634",
"; 	c #292E3F",
"> 	c #2D3346",
", 	c #2C3244",
"' 	c #2C3346",
") 	c #2C3245",
"! 	c #2B3144",
"~ 	c #252B3A",
"{ 	c #1C1F29",
"] 	c #48586A",
"^ 	c #787D89",
"/ 	c #797E8A",
"( 	c #6F7683",
"_ 	c #495A6D",
": 	c #707784",
"< 	c #777D89",
"[ 	c #262C3B",
"} 	c #191C24",
"| 	c #C4B9BA",
"1 	c #656165",
"2 	c #666266",
"3 	c #8A8486",
"4 	c #C3B8B9",
"5 	c #C2B8B9",
"6 	c #847E81",
"7 	c #C5BABB",
"8 	c #1A1D26",
"9 	c #1C1F28",
"0 	c #C0B6B7",
"a 	c #837D80",
"b 	c #847E80",
"c 	c #1D202A",
"d 	c #767074",
"e 	c #2D303B",
"f 	c #535157",
"g 	c #C1B6B7",
"h 	c #4A4F50",
"i 	c #263636",
"j 	c #2F323D",
"k 	c #B7ADAE",
"l 	c #363741",
"m 	c #273537",
"n 	c #273637",
"o 	c #1D5B2F",
"p 	c #127127",
"q 	c #C3B8B8",
"r 	c #2F9F31",
"s 	c #039308",
"t 	c #AAA0A2",
"u 	c #333640",
"v 	c #16692A",
"w 	c #047A20",
"x 	c #22942C",
"y 	c #39AD3C",
"z 	c #38B03B",
"A 	c #A8C49F",
"B 	c #33B536",
"C 	c #26992F",
"D 	c #26982F",
"E 	c #13B021",
"F 	c #3EBE3F",
"G 	c #3FC03F",
"H 	c #31DB31",
"I 	c #39AE3B",
"J 	c #2D3547",
"K 	c #C2B7B9",
"L 	c #B3B8AC",
"M 	c #30E130",
"N 	c #3EC13E",
"O 	c #3BC83B",
"P 	c #3FBF3F",
"Q 	c #3EC23E",
"R 	c #0EFA0E",
"S 	c #38AE3B",
"T 	c #242B3C",
"U 	c #C1B7B8",
"V 	c #38B03F",
"W 	c #35D335",
"X 	c #0AFC0A",
"Y 	c #3FBE3F",
"Z 	c #3CC63C",
"` 	c #39CD39",
" .	c #3BB041",
"..	c #40BD40",
"+.	c #33D633",
"@.	c #36BF37",
"#.	c #A0BD98",
"$.	c #CBC0C0",
"%.	c #252B3C",
"&.	c #36A143",
"*.	c #3AAE41",
"=.	c #3BAE42",
"-.	c #2AE42A",
";.	c #2CE12C",
">.	c #3FBD3F",
",.	c #90B289",
"'.	c #3E9D41",
").	c #070A1C",
"!.	c #CEC3C3",
"~.	c #C3B8BA",
"{.	c #ACA3A7",
"].	c #3D5E45",
"^.	c #4A6D62",
"/.	c #436756",
"(.	c #AFA6A9",
"_.	c #CDC2C2",
":.	c #050618",
"<.	c #293042",
"[.	c #2F3847",
"}.	c #39495E",
"|.	c #39495F",
"1.	c #2F3C53",
"2.	c #697381",
"3.	c #979196",
"4.	c #9C9AA1",
"5.	c #667180",
"6.	c #2B3850",
"7.	c #2D3645",
"8.	c #222530",
"9.	c #516477",
"0.	c #516376",
"a.	c #3A455A",
"b.	c #506376",
"c.	c #404D61",
"d.	c #374055",
"e.	c #3E4A5E",
"f.	c #3D495E",
"g.	c #47576A",
"h.	c #516377",
"i.	c #202533",
"j.	c #2F3748",
"k.	c #363F54",
"l.	c #2D3446",
"m.	c #333C4F",
"n.	c #343D51",
"o.	c #2C3344",
"p.	c #303849",
"q.	c #2F3747",
"r.	c #30394A",
"s.	c #1D202B",
"t.	c #1C202C",
"u.	c #1E222E",
"v.	c #1D222E",
"w.	c #1C202B",
"x.	c #272B36",
"y.	c #2B3244",
"z.	c #2E3548",
"A.	c #262C3D",
"B.	c #282F40",
"C.	c #292E3D",
"D.	c #2A3142",
"E.	c #242939",
"F.	c #242835",
"G.	c #2A2F3E",
"H.	c #212530",
"I.	c #272B39",
"                                                                ",
"                                                                ",
"                                                                ",
"                                                                ",
"                                                                ",
"                                    . . . .   . . . . .         ",
"                + + + + + + + + + @ + # + # + @   $ $ $         ",
"              + % & & & & & & & & & & & & & & % * $ $ $ $       ",
"              = - ; > ; , ' ; ) ) ; ' ! ; > ; ~ =               ",
"                { ] ^ / / ( _ _ _ _ : / / < ] [ $ $ $ $ $       ",
"                + } | 1 2 3 4 5 5 4 6 2 1 7 8 + $ $ $   $       ",
"                  9 0   a b               5 c     $ $ $ $   $   ",
"                  9 0 d b   e f           5 c                   ",
"                  9 g h i j k l   m n o p q c                   ",
"                  9 g r s t u   v w w x y q c                   ",
"                  9 g z A B C D E F G H I q c                   ",
"  . . . . . . . . J K L M N O P Q P P R S q c                   ",
"  . $ $ $ $ $ $ $ T U V P W X Y P Z ` Y y q c                   ",
"  . $   $ $ $ $ $ T U  .P P ..+...P P @.#.$.c                   ",
"  . $ $ $ $ $ $ $ %.U &.*.=.Y -.;.>.=.,.'.q c                   ",
"  .             $ ).!.~.4 {.].^./.].(.4 q _.:.                  ",
"  . $ $ $ $ $   <.[.}.|.1.2.3.4.4.4.5.|.6.}.7.8.                ",
"  . $ $ $ $ $   { 9.0.a.0.b.c.d.e.f.f.g.b.b.h.9                 ",
"      $ $ $ $   i.j.k.l.m.n.j.o.j.p.k.q.r.k.j.s.                ",
"        $ $ $ + t.u.u.u.u.v.u.u.u.u.v.u.u.u.u.w.x.              ",
"          $ $ = y.z.A.z.B.z.C.D.E.C.z.F.G.H.G.I.=               ",
"                              . $   $   $                       ",
"                                $   $   $   $                   ",
"                                                                ",
"                                                                ",
"                                                                ",
"                                                                "};
