/* XPM */
static char *result[] = {
/* columns rows colors chars-per-pixel */
"32 32 11 1 ",
"  c #61557E",
". c #8C76BE",
"X c #8D77BF",
"o c #8265C4",
"O c #D4939B",
"+ c #FB8A98",
"@ c #EB93AD",
"# c #FB9FAA",
"$ c #FFC2AD",
"% c #9085D0",
"& c #F4C5D5",
/* pixels */
"%%%%%%%%%%%%%%@@@@%%%%&&&&%%%%%%",
"%%%%%%%%%%%%%%@@@@%%%%&&&&%%%%%%",
"%%..%%%%%%%o@@    @@&&    &&%%%%",
"%%%..%%%%%%%@@    @@&&    &&%%%%",
"%%%%.%%%%%%###@@  @@%%&&  &&%%%%",
"%%%%%%%%%%%#OO@@  @@%%&&  &&%%%%",
"%%%%%%%%%%%%  @@@@    &&&&&&  %%",
"%%%%%%%%%..%  @@@@    &&&&&&  %%",
"%%%%%%%%%%..  @@@@@@&&&&&&&&  #%",
"%%%%%%%%%%%.  @@@@@@&&&&&&&&  #%",
"%%%oo%%%%%%%  @@@@  &&&&  &&  %%",
"%%%%oo%%%%%%  @@@@  &&&&  &&  %%",
"%%%%%o%%%%%%  @@@@  @@&&  &&  %%",
"%%%%%%%%%%%%  @@@@  @@&&  &&  %%",
"%%%%%%%%%%%%  @@@@@@@@@@&&&&  %%",
"%%%%%%%%%..%  @@@@@@@@@@&&&&  %%",
"%%%%%%%%%%..%%              o%%%",
"%..%%%%%%%%.%%              o%%%",
"%%..%%&&%%%%%%%%%oo%%%%%%%%%%%%%",
"%%%.%%&&%%%%%%%%%%o%%%..%%%%%%%%",
"%%%%&&@@%%%%%%%%    %%%..%%%%%%%",
"%%%#&&@@##%%%%%%    %%%%.%%%%%%%",
"%%%#@@&&@@@@%%  &&&&  XX%%%%%%%%",
"%%%%@@&&@@@@%%  &&&&  XX%%%%%%%%",
"%%%%%%    #%%%  &&&&  @@XX%%%%%%",
"%%%%%%    $#%%  &&&&  @@XX%%%%%%",
"%..%%##%#O+#%#  &&&&  @@XXoo%%%%",
"%%..#O$#%#O##O  &&&&  @@XX%oo%%%",
"%%%.%#O#%#O##O  &&&&  @@XX%%o%%%",
"%%%%%%%%%%%%%%  &&&&  @@XX%%%%%%",
"%%%%%%%%%%%%%%  @@@@  @@XX%%%%%%",
"%%%%%%%%%%%%%%  @@@@  @@XX%%%%%%"
};
