/* XPM */
static char *result[] = {
/* columns rows colors chars-per-pixel */
"32 32 10 1 ",
"  c #00253D",
". c #00375B",
"X c #0061A0",
"o c #007ECF",
"O c #8C76BE",
"+ c #8265C4",
"@ c #44B7C2",
"# c #0ED6E9",
"$ c #9085D0",
"% c #B5F8FF",
/* pixels */
"$$$$$$$$$$$$$$$$$$$$$$$$$$$$$$$$",
"$$$$$$$%$$$$$$$..$%$$$$$OO$$$$$$",
"$$OO$$$$$$$++..XX..$$$%$$OO$$$$$",
"$$$OO$$$$$$$.XXooXX.$$$$$$O$$$$$",
"$$$$O$$$$$$.XooXXooX.$%$$$$$$$$$",
"$$$$$$$$$$.XooX%%XooX.$$$$$$$$$$",
"$$$$$$$$$.XoXX%%%%XooX.$$$$$$$$$",
"$$$$$$$$.XooX%%%%%%XooX.%$$$$$$$",
"$$$$$%$%.ooX%%%%%%%Xooo.$$$%+$$$",
"$$$$$$$$.ooX%%%%%%%%Xoo.%$$$++$$",
"$$$%+$%.XoX%%%XXX%%%XooX.$$$$+$$",
"$$$$++$.ooX%%XoooX%%%Xoo.%$$$$$$",
"$$$$$+$.ooX%XoooooX%%Xoo.$$$$$$$",
"$$$$$$.XooX%Xoo@@oX%%%XoX.$$$$$$",
"$$$$$$.XoX%%Xo@##@oX%%XoX.$%$$$$",
"$$$$%$.XoX%%X@####@X%%XoX.++%$$$",
"$$$$$$.XoX%%X@####@X%%XoX.%++$%$",
"$OO$$%.XoX%%Xo@##@oX%XooX.$$+$$$",
"$$OO$$.XooX%Xoo@@ooX%XooX.$$$%$$",
"$$$O$$$.ooX%XoooXoX%%Xoo.$$$$$$$",
"$$%$%$$.ooX%%XooXX%%%Xoo.$$$$$$$",
"$$%$$$$.XooX%XooX%%%%XoX.$$$$$$$",
"$$$$$$$+.ooX%XooX%%%Xoo.$$$$$$$$",
"$$$$$$$%.oooXXoooX%Xooo.$$%$$$$$",
"$$$$$$$$.XooXXXoooXoooX.$$$%$$$$",
"$$$$$$$$$.XooXXooooooX.$$%$%$$$$",
"$OO$$$$$$%.XoXXoooooX.%$%$++$$$$",
"$$OO$%%$$$$.XoXXoooX.$$$$$$++$$$",
"$$$O$$$$$$$$.XXXoXX.$$$$$$$$+$$$",
"$$$$$$$$$    ..XX..    $$$$$$$$$",
"$$$$$$         ..         $$$$$$",
"$$$$$$$$$              $$$$$$$$$"
};
