/* XPM */
static char * exit_deactivated_xpm[] = {
"32 32 106 2",
"  	c #282C38",
". 	c #191D2A",
"+ 	c #2E3447",
"@ 	c #2F3548",
"# 	c #2B3043",
"$ 	c #252B3C",
"% 	c #242A3B",
"& 	c #1A1F2C",
"* 	c #272A36",
"= 	c #222736",
"- 	c #3E465D",
"; 	c #3F485F",
"> 	c #3C435B",
", 	c #384057",
"' 	c #3B425A",
") 	c #3F475E",
"! 	c #454D65",
"~ 	c #373F55",
"{ 	c #353E53",
"] 	c #262A36",
"^ 	c #181B23",
"/ 	c #627284",
"( 	c #697F8F",
"_ 	c #283A4C",
": 	c #274658",
"< 	c #556475",
"[ 	c #1D222B",
"} 	c #272B37",
"| 	c #1F222C",
"1 	c #475466",
"2 	c #556777",
"3 	c #1396B0",
"4 	c #01D8FB",
"5 	c #01D6F9",
"6 	c #1395AE",
"7 	c #354151",
"8 	c #20242E",
"9 	c #1E222C",
"0 	c #4F5D6F",
"a 	c #687E8E",
"b 	c #02D4F7",
"c 	c #485665",
"d 	c #222832",
"e 	c #222837",
"f 	c #424961",
"g 	c #556577",
"h 	c #627B87",
"i 	c #617E8B",
"j 	c #617E8A",
"k 	c #728C99",
"l 	c #4A546A",
"m 	c #343C51",
"n 	c #333B50",
"o 	c #262C3E",
"p 	c #3C465D",
"q 	c #3E4860",
"r 	c #232732",
"s 	c #2A323C",
"t 	c #3F4C58",
"u 	c #414E5B",
"v 	c #3E4A57",
"w 	c #3D4956",
"x 	c #2E3741",
"y 	c #333B51",
"z 	c #242833",
"A 	c #1F242D",
"B 	c #272E3F",
"C 	c #2F3749",
"D 	c #2E3540",
"E 	c #37414C",
"F 	c #3F4B5E",
"G 	c #374156",
"H 	c #2B303C",
"I 	c #4A5A65",
"J 	c #6D8493",
"K 	c #6D8392",
"L 	c #566676",
"M 	c #3E4B57",
"N 	c #252934",
"O 	c #232731",
"P 	c #5E747E",
"Q 	c #566A77",
"R 	c #445363",
"S 	c #384454",
"T 	c #232939",
"U 	c #222838",
"V 	c #475760",
"W 	c #68808C",
"X 	c #425160",
"Y 	c #435262",
"Z 	c #4A5A6B",
"` 	c #3F4E5D",
" .	c #3C4859",
"..	c #1B1F2D",
"+.	c #404E57",
"@.	c #526672",
"#.	c #35404E",
"$.	c #404F5F",
"%.	c #34404E",
"&.	c #35404F",
"*.	c #414F5F",
"=.	c #364251",
"-.	c #3E4D5D",
";.	c #354150",
">.	c #232738",
",.	c #191E2B",
"                . + @ @ @ @ @ @ @ @ @ # @ $ % & *               ",
"                = - ; > , ' > > > > > ) ! ~ { % ]               ",
"                ^ / ( _ : : : : : : : : : : < [ }               ",
"                | 1 2 3 4 4 4 4 4 4 5 4 4 6 7 8                 ",
"                9 0 a 6 5 5 5 5 5 5 b 4 4 6 c d                 ",
"                e f g h i i i i i i j k l m n o p q q q         ",
"                r s t u u u u u u u u u v w x m   y y y         ",
"                  z A A A A B B A C A B B B r q y y y y y       ",
"                        y   y y   q   y y     q                 ",
"                                              q y y y y y       ",
"                                                y y y   y       ",
"                                                  y y y y   y   ",
"                                                                ",
"                                                                ",
"                                                                ",
"                            y y   y                             ",
"  q q q q q q q q q q q     y y                                 ",
"  q y y y y y y y y y y y                                       ",
"  q y   y y y y y y y y   y   q q q                             ",
"  q y y y y y y y y y y y y   q y y y                           ",
"  q             y y y y y y   q y   y                           ",
"  q y y y y y   y y y y y y   q y y y                           ",
"  q y y y y y                 q y y y                           ",
"      y y y y   y y y y y y   q y y y                           ",
"        y y y   y y y y   y   q y                               ",
"          y y   y y y y y y   q y   y                           ",
"                              q y   y   y                       ",
"                    D E E E E E F E F E G H y                   ",
"                  ] I J J J J J J J J K L M N                   ",
"                O P Q R R R R R R R R R S T U 8                 ",
"                V W X R Y Y Y Z Z Z R `  .o o ..]               ",
"                +.@.#.$.%.%.&.*.*.*.=.-.;.>.>.,.*               "};
