/* XPM */
static char * exit_activated_xpm[] = {
"32 32 125 2",
"  	c #282C38",
". 	c #0D111A",
"+ 	c #2A2F40",
"@ 	c #272C3D",
"# 	c #2A2E3F",
"$ 	c #1F2433",
"% 	c #1E2433",
"& 	c #1A1E2C",
"* 	c #262A36",
"= 	c #1B202E",
"- 	c #394058",
"; 	c #383F57",
"> 	c #3A4259",
", 	c #383F56",
"' 	c #424962",
") 	c #323A50",
"! 	c #2C3347",
"~ 	c #080A0E",
"{ 	c #647587",
"] 	c #7892A1",
"^ 	c #2A2C3E",
"/ 	c #2A2335",
"( 	c #596A7B",
"_ 	c #040507",
": 	c #272B37",
"< 	c #181B23",
"[ 	c #4E5C6E",
"} 	c #556677",
"| 	c #10839A",
"1 	c #00DDFF",
"2 	c #00DEFF",
"3 	c #11515F",
"4 	c #2A323D",
"5 	c #0D0F15",
"6 	c #181B24",
"7 	c #495569",
"8 	c #7792A1",
"9 	c #44515E",
"0 	c #0D1015",
"a 	c #1A1F2D",
"b 	c #434A63",
"c 	c #4D5A6F",
"d 	c #5B6E78",
"e 	c #5B6B75",
"f 	c #6B828E",
"g 	c #333B51",
"h 	c #333A51",
"i 	c #2C3447",
"j 	c #3C465D",
"k 	c #3E4860",
"l 	c #1F222C",
"m 	c #1B2228",
"n 	c #35404B",
"o 	c #343E49",
"p 	c #36414C",
"q 	c #2F3842",
"r 	c #242B3B",
"s 	c #20242E",
"t 	c #620E13",
"u 	c #A07474",
"v 	c #A3A5A4",
"w 	c #8C0609",
"x 	c #A30000",
"y 	c #A07070",
"z 	c #A29291",
"A 	c #5B0F14",
"B 	c #A3A5A5",
"C 	c #A29695",
"D 	c #92070C",
"E 	c #FD4141",
"F 	c #FFD8D8",
"G 	c #FF0000",
"H 	c #FBB3B3",
"I 	c #FDE5E5",
"J 	c #FF8B8B",
"K 	c #FB6F6F",
"L 	c #FD4545",
"M 	c #FFD9D9",
"N 	c #FF8E8E",
"O 	c #FB7272",
"P 	c #2C2C38",
"Q 	c #52333E",
"R 	c #FD6F6F",
"S 	c #FFE4E4",
"T 	c #773C46",
"U 	c #FEE6E6",
"V 	c #58495B",
"W 	c #FFB4B4",
"X 	c #FC9B9B",
"Y 	c #7D2B36",
"Z 	c #4A5A63",
"` 	c #809BAA",
" .	c #809CAB",
"..	c #819CAB",
"+.	c #5A6A7A",
"@.	c #4E5A69",
"#.	c #252934",
"$.	c #222630",
"%.	c #46575F",
"&.	c #404F58",
"*.	c #303B47",
"=.	c #2B3541",
"-.	c #171C28",
";.	c #161B27",
">.	c #1C202A",
",.	c #252F35",
"'.	c #46565E",
").	c #26313B",
"!.	c #29333E",
"~.	c #2E3946",
"{.	c #2C3743",
"].	c #252F3A",
"^.	c #2A333F",
"/.	c #161A26",
"(.	c #111520",
"_.	c #475760",
":.	c #708897",
"<.	c #3C485B",
"[.	c #55677B",
"}.	c #3B475A",
"|.	c #55677A",
"1.	c #4C5C6F",
"2.	c #54667A",
"3.	c #4D5D70",
"4.	c #262C3E",
"                . + + + + + + + + + + @ # $ % & *               ",
"                = - ; > , > > > > > > - ' ) ) ! *               ",
"                ~ { ] ^ / / / / / / / / / / ( _ :               ",
"                < [ } | 1 1 1 1 1 1 2 1 1 3 4 5                 ",
"                6 7 8 | 1 1 1 1 1 1 2 1 1 | 9 0                 ",
"                a b c d e e e e e e e f b g h i j k k k         ",
"                l m n o o o o o o o o o p p q r   g g g         ",
"                  s t u v w x y z x A B C D < k g g g g g       ",
"                      E F   G H I G   J K     k                 ",
"                      L M   G H I G   N O P   k g g g g g       ",
"                      L M   G H I G   N O P     g g g   g       ",
"                      L M   G H I G   N O P       g g g g   g   ",
"                      L M   G H I G   N O P                     ",
"                      L M   G H I G   N O P                     ",
"                      L M   G H I G   N O P                     ",
"                      L M   G H I G   N O P                     ",
"  k k k k k k k k k k L M   G H I G   N O P                     ",
"  k g g g g g g g g g L M   G H I G   N O P                     ",
"  k g   g g g g g g g L M g G H I G   N O P                     ",
"  k g g g g g g g g g L M g G H I G g N O P                     ",
"  k             g g g L M g G H I G g N O P                     ",
"  k g g g g g   g g g L M g G H I G g N O P                     ",
"  k g g g g g         L M   G H I G g N O P                     ",
"      g g g g   g g g L M g G H I G g N O P                     ",
"        g g g   g g g L M g G H I G   N O P                     ",
"          g g   g g g L M g G H I G g N O P                     ",
"                      L M   G H I G g N O P                     ",
"                    Q R S T G H U G V W X Y g                   ",
"                  * Z `  .` ` ` ` ` ` ..+.@.#.                  ",
"                $.%.&.*.*.*.*.*.*.*.*.*.=.-.;.>.                ",
"                ,.'.).!.!.!.!.~.~.~.{.].^././.(.*               ",
"                _.:.<.[.<.<.}.|.|.|.1.2.3.! ! 4.*               "};
