/* XPM */
static char * Ground_xpm[] = {
"32 32 4 1",
" 	c #282C38",
".	c #3E4860",
"+	c #333B51",
"@	c #FFFFFF",
"                                ",
"                                ",
"                                ",
"                                ",
"                                ",
"                  .... .....    ",
"                 . + + . +++    ",
"              ++ . +++ .+++++   ",
"            + ++ . ++  .        ",
"                       .+++++   ",
"                        +++ +   ",
"                         ++++ + ",
"                                ",
"                                ",
"                                ",
"              ++ +              ",
" ...........  ++                ",
" .+++++++++++                   ",
" .+ ++++++++ + ...              ",
" .++++++++++++ .+++             ",
" .      ++++++ .+ +             ",
" .+++++ ++++++ .+++             ",
" .+++++        .+++             ",
"   ++++ ++++++ .+++             ",
"    +++ ++++ + .+               ",
"     ++ ++++++ .+ +             ",
"               .+ + +           ",
"                + + + +         ",
"                                ",
"                                ",
"                                ",
"                                "};
