/* XPM */
static char * Player_xpm[] = {
"32 32 8 1",
" 	c #282C38",
".	c #B68B63",
"+	c #EEC39A",
"@	c #3E4860",
"#	c #333B51",
"$	c #161616",
"%	c #465231",
"&	c #475982",
"                                ",
"                                ",
"                                ",
"               ..               ",
"              .+++              ",
"              ++++@@@@ @@@@@    ",
"              ++++ # # @ ###    ",
"              #+.@ ### @#####   ",
"            # $++$ ##  @        ",
"             %$%%$%    @#####   ",
"            %%$$$$%%    ### #   ",
"            %%$$$$%%     #### # ",
"           %%$$$$$$%%           ",
"           +%$$$$$$%+           ",
"           ++$$$$$$++           ",
"          ++ $$$$$$ ++          ",
" @@@@@@@@@++ %%%%%% ++          ",
" @########++$$$$$$$ ++          ",
" @# ######+#$$&&&&&  +          ",
" @########$##&&&&&&  $          ",
" @      ##$$&&&@#&&&$$          ",
" @##### ##$+&&&@#&&&+$          ",
" @#####     && @##&&            ",
"   #### ####&& @##&&            ",
"    ### ###&&# @#  &&           ",
"     ## ###&&# @# #&&           ",
"           &&  @# #&&           ",
"           $    # # $ #         ",
"           $        $           ",
"          $$        $$          ",
"         $$$        $$$         ",
"                                "};
