/* XPM */
static char *a988cbf9db5048188132b380ed758c39XYpU9bnx5ROEEW09[] = {
/* columns rows colors chars-per-pixel */
"32 32 7 1 ",
"  c #8C76BE",
". c #8265C4",
"X c #D4939B",
"o c #FB8A98",
"O c #FB9FAA",
"+ c #FFC2AD",
"@ c #9085D0",
/* pixels */
"@@@@@@@@@@@@@@@@@@@@@@@@@@@@@@@@",
"@@@@@@@@@@@@@@@@@@@@@@@@@@@@@@@@",
"@@  @@@@@@@..@@@@  @@@@@  @@@@@@",
"@@@  @@@@@@@..OOOO  @@@@OOO@@@@@",
"@@@@ @@@@@@OOOX+++O @@@OXoO@@@@@",
"@@@@@@@@@@@OXXoo+++O@@OXo+O@@@@@",
"@@@@@@@@@@@@OOXXoo+O@@Oo+O@@@@@@",
"@@@@@@@@@  @@@OOXXo+O@O+O@@OOO@@",
"@@@@@@@@@@  @@@@OOXoO@@@@OOXXXO@",
"@@@@@@@@@@@ @@@@@@OXXO@@OOXooXO@",
"@@@..@@@@@@@@@@@@@@OXO@OOXo++O@@",
"@@@@..@@@@@@@@@@@@@OXO@OXo++O@@@",
"@@@@@.@@@@@@@@@@OO@@OOOXo++O@@@@",
"@@@@@@@@@@@@@@@@OXO@OOOX++O@@@@@",
"@@@@@@@@@@@@@@@@@OO@@OOOOO@@@@@@",
"@@@@@@@@@  @@@@@@@@@@@@@@@..@@@@",
"@@@@@@@@@@  @@@@@@@@@@@@@@@..@@@",
"@  @@@@@@@@ @@@@..@@@@@@@@@@.@@@",
"@@  @@@@@@@@@@@@@..@@@@@@@@@@@@@",
"@@@ @@@@@@@@@@@@@@.@@@  @@@@@@@@",
"@@@@@OOO@@@@@@@@@@@@@@@  @@@@@@@",
"@@@OOXX+OO@@@@@@@@@@@@@@ @@@@@@@",
"@@@OXXoo++O@@@@@@@@@@@@@@@@@@@@@",
"@@@@OOXXo+O@@@@@@..@@@@@@@@@@@@@",
"@@@@@@OOXoO@@@@@@@..@@@@@@@@@@@@",
"@@@@@@@@OX+O@@OO@@@.@@@@@@@@@@@@",
"@  @@OO@OXoO@OX+O@@@@@@@@@..@@@@",
"@@  OX+O@OXOOX+O@@@@@@@@@@@..@@@",
"@@@ @OXO@OXOOXO@@@@@@@@@@@@@.@@@",
"@@@@@@@@@@@@@@ @@@@@  @@@@@@@@@@",
"@@@@@@@@@@@@@@@@@@@@@  @@@@@@@@@",
"@@@@@@@@@@@@@@@@@@@@@@ @@@@@@@@@"
};
